<svg viewBox="0 0 128 128" xmlns="http://www.w3.org/2000/svg">
  <g fill="none" fill-rule="evenodd">
    <circle cx="64" cy="64" r="64" fill="#EAEEEE"/>
    <path d="M57.775 106.407c19.275 3.176 37.704-6.676 46.056-23.048a5.002 5.002 0 0 1 3.338-2.6c6.345-1.459 11.494-6.55 12.633-13.293.331-1.956.243-3.88-.054-5.731-.21-1.32-.92-1.917-2.015-2.098-1.145-.189-2.003.238-2.653 1.469-.986 1.866-4.648 3.556-7.26 5.047-2.347 1.338-3.283 3.16-4.586 3.496-1.335.344-3.31-1.318-5.457-1.949-2.613-.767-4.517-.817-6.564-2.319a2.435 2.435 0 0 0-1.665-.812c-1.198-.083-2.295.736-2.54 1.897-.072.34-.071.676-.009.993a16.408 16.408 0 0 0 5.262 9.492c2.398 1.868 2.886 4.152 1.238 6.904-3.472 5.8-10.087 7.004-15.575 7.004-10.188 0-16.604-7.887-16.98-16.423-.087-1.978.234-3.019 1.742-3.182 1.757-.19 2.675-.002 4.509.087 1.177.056 2.339.162 3.465.387 2.591.516 3.174-.69 3.309-1.659.087-.63-.216-1.484-.542-1.977-1.839-2.786-1.932-3.478-4.804-5.877-.64-.535-1.377-1.51-.858-2.234 1.103-1.539 4.238-3.258 11.902-4.605 3.09-.544 7.634-.602 9.896-.403 2.377.208 5.402.425 7.424.959 2.76.728 5.076-1.432 5.434-3.55.3-1.782-.493-3.164-1.982-4.86-1.073-1.223-1.912-1.944-2.389-5.973-.8-6.758-6.076-11.014-8.684-12.939-5.64-4.163-9.82-5.791-17.256-7.017-9.491-1.564-18.778.03-26.757 4.008a10.345 10.345 0 0 1-6.204.892 10.49 10.49 0 0 1-1.278-.293 28.882 28.882 0 0 0-2.837-.689c-6.372-1.21-12.617.04-17.835 3.037a2.395 2.395 0 0 0-1.155 1.668c-.221 1.307.382 2.289 1.997 2.762 2.43.713 4.581 2.34 5.736 4.739a14.339 14.339 0 0 1 .288 11.468 42.66 42.66 0 0 0-2.066 7.737c-3.066 18.14 5.852 35.522 21.05 44.253a43.795 43.795 0 0 0 14.726 5.232z" fill="#00EDFF"/>
  </g>
</svg>
