<svg viewBox="0 0 129 71" xmlns="http://www.w3.org/2000/svg">
  <path d="M78.934 62.966c-.074.078-.155.151-.222.235-1.948 2.408-3.897 4.816-5.84 7.23-.302.376-.645.628-1.168.554a.959.959 0 0 0-.26 0c-.665.09-1.084-.243-1.427-.74-.366-.528-.535-1.134-.763-1.715-.678-1.725-1.34-3.456-2.01-5.183a.776.776 0 0 0-.256-.352c-.06.42-.125.84-.18 1.26-.176 1.307-.332 2.616-.528 3.92-.079.52-.224 1.032-.379 1.536a2.81 2.81 0 0 1-.381.74c-.255.37-.623.544-1.102.537-1.095-.015-2.191 0-3.287-.006-.803-.003-1.398-.682-1.277-1.44l1.808-11.391c.141-.892.285-1.782.426-2.674.056-.35.175-.672.414-.946.292-.336.638-.526 1.12-.521 1.73.016 3.46.016 5.19 0 .438-.004.757.158.984.49.157.23.29.48.397.736.803 1.916 1.596 3.836 2.393 5.755.052.125.11.249.186.42.11-.1.197-.163.263-.242a3973.09 3973.09 0 0 0 4.981-6.026c.197-.24.367-.498.556-.743.2-.262.461-.39.813-.388 2.005.009 4.009.001 6.013.006.697.002 1.297.726 1.182 1.394-.451 2.612-.897 5.225-1.346 7.837-.374 2.175-.746 4.351-1.127 6.525-.133.758-.706 1.208-1.504 1.21-1.11 0-2.223-.042-3.33.014-.77.038-1.452-.817-1.325-1.5.393-2.102.7-4.219 1.04-6.33.008-.054.01-.108.014-.162l-.068-.04m48.083-8.963c1.02-.007 1.849.961 1.933 1.7.13 1.147 0 2.271-.293 3.38-.145.55-.346 1.086-.505 1.633-.137.471-.443.803-.866 1.045-.271.155-.554.291-.889.466.243.144.429.247.607.361.593.38.87.874.732 1.593-.284 1.485-.513 2.98-.782 4.469-.082.45-.205.894-.342 1.33-.07.22-.19.435-.33.623-.205.275-.505.386-.865.384-1.412-.008-2.825 0-4.238-.005-.673-.003-1.122-.504-1.022-1.155.075-.494.184-.983.28-1.473.155-.776.314-1.55.466-2.327.13-.665-.306-1.177-1.02-1.186-.692-.009-1.384-.004-2.076-.002-.681.003-1.113.331-1.242.979-.184.925-.347 1.855-.52 2.783-.086.464-.165.929-.26 1.391-.136.667-.555.99-1.269.991-1.283.001-2.566-.006-3.849.004-.464.004-.77-.214-.955-.59a.914.914 0 0 1-.073-.519c.501-3.136 1.013-6.271 1.523-9.406.286-1.753.569-3.506.868-5.257.04-.24.134-.488.266-.694.213-.334.525-.512.97-.511 4.583.01 9.168.024 13.751-.007zm-5.679 3.561c-.964.03-1.93.008-2.895.009-.084 0-.17.012-.304.022-.258 1.162-.525 2.289-.735 3.426.094.03.133.054.173.054 1.124.003 2.247.005 3.37.004.28 0 .513-.117.656-.34.127-.198.244-.415.3-.638.126-.51.217-1.03.314-1.548a.848.848 0 0 0-.879-.989zm-74.339 7.548c-.118.597-.238 1.194-.354 1.791-.174.9-.345 1.8-.52 2.7-.092.471-.355.844-.736 1.143-.234.184-.51.24-.809.239-1.009-.004-2.021-.044-3.027.013-.72.04-1.387-.779-1.31-1.37.098-.744.145-1.493.237-2.236.425-3.419 1.103-6.797 1.75-10.18.104-.545.213-1.09.295-1.64.1-.68.552-1.109 1.103-1.464.11-.07.272-.087.411-.088.98-.007 1.962.002 2.942-.007.299-.002.549.091.72.311.224.287.449.581.613.9 1.144 2.226 2.273 4.46 3.409 6.689.04.08.102.152.187.278.045-.18.082-.297.102-.416.357-2.137.717-4.274 1.066-6.412.06-.371.207-.691.477-.958.263-.26.574-.397.963-.392.98.011 1.964.046 2.941-.011.672-.04 1.34.648 1.237 1.302-.08.507-.144 1.017-.223 1.524-.335 2.154-.675 4.307-1.01 6.461-.326 2.1-.648 4.2-.97 6.3-.058.369-.22.688-.482.958-.255.264-.56.436-.947.436-1.197 0-2.394-.003-3.591.002a.813.813 0 0 1-.645-.288 9.164 9.164 0 0 1-.75-.963c-.907-1.401-1.798-2.813-2.696-4.22-.089-.139-.182-.275-.272-.413l-.111.011m53.423-1.537a345.734 345.734 0 0 0-.697-5.703c-.323.391-2.899 5.368-2.964 5.703h3.661zm.456 4.083h-.437c-1.744 0-3.488.008-5.233-.007-.316-.003-.496.09-.638.363a28.958 28.958 0 0 1-.968 1.719c-.195.32-.431.62-.68.905-.213.244-.518.344-.85.344-1.5 0-3 0-4.499-.002a1.47 1.47 0 0 1-.257-.023c-.442-.082-.634-.325-.528-.744.077-.306.198-.609.346-.89 1.204-2.306 2.42-4.605 3.63-6.906 1.243-2.364 2.481-4.73 3.73-7.09.17-.32.377-.623.596-.914.204-.27.491-.401.857-.4 2.58.007 5.16.001 7.741.006.725 0 1.1.269 1.255.96.158.704.259 1.42.375 2.132.477 2.919.949 5.838 1.423 8.757.208 1.274.42 2.548.62 3.823.028.175.029.362 0 .537-.058.362-.28.607-.657.69a2.918 2.918 0 0 1-.598.063 394.77 394.77 0 0 1-3.373.002c-.82-.003-1.254-.327-1.438-1.106-.117-.5-.187-1.01-.28-1.515-.04-.216-.084-.432-.137-.704zM25.874 54.009c2.336.016 4.671.007 7.007.007.216 0 .432-.003.649.002.65.014.994.253 1.149.862.119.47.193.951.271 1.43.402 2.451.799 4.903 1.197 7.355.322 1.986.645 3.971.965 5.958.024.15.037.304.038.456.003.529-.227.79-.774.878a3.063 3.063 0 0 1-.474.025c-1.125.002-2.25.003-3.374.001-.843-.002-1.249-.306-1.422-1.1l-.125-.627L30.755 68c-.02-.105-.055-.208-.086-.324-.155-.007-.283-.017-.41-.017-1.76-.001-3.519.005-5.277-.007-.283-.002-.446.075-.571.325a24.458 24.458 0 0 1-.902 1.659c-.2.333-.444.646-.705.939-.255.285-.61.408-1.005.408l-4.412-.001c-.043 0-.086-.002-.13-.005-.628-.049-.84-.344-.647-.93.064-.197.158-.387.255-.572 2.412-4.591 4.827-9.182 7.24-13.773.111-.21.212-.425.329-.633a4.98 4.98 0 0 1 .335-.532c.27-.361.62-.532 1.105-.528zm3.717 3.915c-.287.263-2.898 5.278-2.964 5.653h3.54c-.16-1.896-.378-3.754-.576-5.653zM8.89 59.302c.127-.145.228-.26.326-.376.993-1.19 1.978-2.386 2.982-3.569.3-.353.646-.671.978-.999.252-.25.552-.352.93-.35 1.96.017 3.922.007 5.884.01.185.001.377.01.553.06.268.074.352.232.247.478a2.267 2.267 0 0 1-.352.566c-1.559 1.839-3.125 3.672-4.689 5.507-1.17 1.374-2.345 2.745-3.504 4.127a1.388 1.388 0 0 0-.28.591c-.279 1.346-.536 2.697-.804 4.045-.04.204-.084.41-.15.606-.184.544-.581.844-1.17.91a3.569 3.569 0 0 1-.388.018h-3.98c-.13 0-.26-.005-.39-.019-.554-.06-.848-.323-.849-.865 0-.455.07-.912.141-1.363.18-1.152.376-2.301.57-3.45a.93.93 0 0 0-.092-.603c-.969-1.907-1.93-3.817-2.895-5.726-.567-1.123-1.144-2.242-1.696-3.372a2.814 2.814 0 0 1-.256-.87c-.04-.318.112-.487.437-.576.164-.045.34-.062.511-.062 1.428-.005 2.856.002 4.284-.008.344-.002.63.097.839.35.186.226.363.466.502.721.708 1.303 1.402 2.613 2.103 3.92.05.093.122.176.208.3M24 0l38.958 16.51L101.863 0v9.556l-38.908 16.51L24 9.556zm37.01 30.443V40L24 24.315v-9.556l37.01 15.684zm3.98 0V40L102 24.315v-9.556L64.99 30.443z" fill="#000" fill-rule="evenodd"/>
</svg>
