<svg xmlns="http://www.w3.org/2000/svg" viewBox="0 0 135 40">
  <defs>
    <linearGradient x1="31.7997" y1="183.2903" x2="15.0173" y2="166.5079" gradientUnits="userSpaceOnUse" gradientTransform="matrix(.8 0 0 -.8 0 161.6)" id="i">
      <stop offset="0" stop-color="#00a0ff"/>
      <stop offset=".0066" stop-color="#00a1ff"/>
      <stop offset=".2601" stop-color="#00beff"/>
      <stop offset=".5122" stop-color="#00d2ff"/>
      <stop offset=".7604" stop-color="#00dfff"/>
      <stop offset="1" stop-color="#00e3ff"/>
    </linearGradient>
    <linearGradient x1="43.8344" y1="171.9986" x2="19.637501" y2="171.9986" gradientUnits="userSpaceOnUse" gradientTransform="matrix(.8 0 0 -.8 0 161.6)" id="j">
      <stop offset="0" stop-color="#ffe000"/>
      <stop offset=".4087" stop-color="#ffbd00"/>
      <stop offset=".7754" stop-color="orange"/>
      <stop offset="1" stop-color="#ff9c00"/>
    </linearGradient>
    <linearGradient x1="34.827" y1="169.7039" x2="12.0687" y2="146.9456" gradientUnits="userSpaceOnUse" gradientTransform="matrix(.8 0 0 -.8 0 161.6)" id="k">
      <stop offset="0" stop-color="#ff3a44"/>
      <stop offset="1" stop-color="#c31162"/>
    </linearGradient>
    <linearGradient x1="17.2973" y1="191.82381" x2="27.4599" y2="181.6613" gradientUnits="userSpaceOnUse" gradientTransform="matrix(.8 0 0 -.8 0 161.6)" id="l">
      <stop offset="0" stop-color="#32a071"/>
      <stop offset=".0685" stop-color="#2da771"/>
      <stop offset=".4762" stop-color="#15cf74"/>
      <stop offset=".8009" stop-color="#06e775"/>
      <stop offset="1" stop-color="#00f076"/>
    </linearGradient>
    <clipPath id="a1">
      <path d="M0 0h124v48H0V0z"/>
    </clipPath>
    <mask maskUnits="userSpaceOnUse" x="0" y="0" width="1" height="1" id="m">
      <g clip-path="url(#a1)">
        <path d="M0 0h124v48H0V0z" fill-opacity=".2"/>
      </g>
    </mask>
    <clipPath id="n">
      <path d="M0 0h124v48H0V0z"/>
    </clipPath>
    <clipPath id="b2">
      <path d="M0 0h124v48H0V0z"/>
    </clipPath>
    <pattern patternTransform="matrix(1 0 0 -1 0 48)" patternUnits="userSpaceOnUse" width="124" height="48" id="o">
      <g clip-path="url(#b1)">
        <path d="M29.625 20.695l-11.613-6.597c-.649-.371-1.231-.344-1.606-.008l-.058-.063.058-.058c.375-.336.957-.36 1.606.011l11.687 6.641-.074.074z"/>
      </g>
    </pattern>
    <clipPath id="c1">
      <path d="M0 0h124v48H0V0z"/>
    </clipPath>
    <mask maskUnits="userSpaceOnUse" x="0" y="0" width="1" height="1" id="p">
      <g clip-path="url(#c1)">
        <path d="M0 0h124v48H0V0z" fill-opacity=".12000002"/>
      </g>
    </mask>
    <clipPath id="q">
      <path d="M0 0h124v48H0V0z"/>
    </clipPath>
    <clipPath id="d1">
      <path d="M0 0h124v48H0V0z"/>
    </clipPath>
    <pattern patternTransform="matrix(1 0 0 -1 0 48)" patternUnits="userSpaceOnUse" width="124" height="48" id="r">
      <g clip-path="url(#d1)">
        <path d="M16.348 14.145c-.235.246-.371.628-.371 1.125v-.118c0-.496.136-.879.371-1.125l.058.063-.058.055z"/>
      </g>
    </pattern>
    <clipPath id="e1">
      <path d="M0 0h124v48H0V0z"/>
    </clipPath>
    <mask maskUnits="userSpaceOnUse" x="0" y="0" width="1" height="1" id="s">
      <g clip-path="url(#e1)">
        <path d="M0 0h124v48H0V0z" fill-opacity=".12000002"/>
      </g>
    </mask>
    <clipPath id="t">
      <path d="M0 0h124v48H0V0z"/>
    </clipPath>
    <clipPath id="f">
      <path d="M0 0h124v48H0V0z"/>
    </clipPath>
    <pattern patternTransform="matrix(1 0 0 -1 0 48)" patternUnits="userSpaceOnUse" width="124" height="48" id="u">
      <g clip-path="url(#f)">
        <path d="M33.613 22.961l-3.988-2.266.074-.074 3.914 2.223c.559.316.836.734.836 1.156-.047-.379-.332-.75-.836-1.039z"/>
      </g>
    </pattern>
    <clipPath id="g">
      <path d="M0 0h124v48H0V0z"/>
    </clipPath>
    <mask maskUnits="userSpaceOnUse" x="0" y="0" width="1" height="1" id="v">
      <g clip-path="url(#g)">
        <path d="M0 0h124v48H0V0z" fill-opacity=".25"/>
      </g>
    </mask>
    <clipPath id="w">
      <path d="M0 0h124v48H0V0z"/>
    </clipPath>
    <clipPath id="h">
      <path d="M0 0h124v48H0V0z"/>
    </clipPath>
    <pattern patternTransform="matrix(1 0 0 -1 0 48)" patternUnits="userSpaceOnUse" width="124" height="48" id="x">
      <g clip-path="url(#h)">
        <path d="M18.012 33.902l15.601-8.863c.508-.289.789-.66.836-1.039 0 .418-.277.836-.836 1.156L18.012 34.02c-1.117.632-2.035.105-2.035-1.176v-.114c0 1.278.918 1.805 2.035 1.172z" fill="#fff"/>
      </g>
    </pattern>
  </defs>
  <path d="M130.5393494 39.9429525H5.2403119c-2.75532582 0-5.0119615-2.23038035-5.0119615-4.95364875V5.26741125c0-2.7232684 2.25663568-4.95364875 5.0119615-4.95364875h125.2990375c2.75532585 0 5.0119615 2.23038035 5.0119615 4.95364875v29.7218925c0 2.7232684-2.25663565 4.95364875-5.0119615 4.95364875z"/>
  <path d="M130.5393494 1.1075847c2.3205382 0 4.20879468 1.86628718 4.20879468 4.15982655v29.7218925c0 2.29353937-1.8882565 4.15982654-4.20879467 4.15982654H5.2403119c-2.32053816 0-4.20879466-1.86628718-4.20879466-4.15982655V5.26741125c0-2.29353937 1.8882565-4.15982654 4.20879467-4.15982654h125.2990375m0-.7938222H5.2403119c-2.75532582 0-5.0119615 2.23038035-5.0119615 4.95364875v29.7218925c0 2.7232684 2.25663568 4.95364875 5.0119615 4.95364875h125.2990375c2.75532585 0 5.0119615-2.23038035 5.0119615-4.95364875V5.26741125c0-2.7232684-2.25663565-4.95364875-5.0119615-4.95364875z" fill="#a6a6a6"/>
  <path d="M45.934 16.195c0 .668-.2 1.203-.594 1.602-.453.473-1.043.711-1.766.711-.691 0-1.281-.242-1.765-.719-.485-.484-.727-1.078-.727-1.789 0-.711.242-1.305.727-1.785.484-.481 1.074-.723 1.765-.723.344 0 .672.071.985.203.312.133.566.313.75.535l-.418.422c-.321-.379-.758-.566-1.317-.566-.504 0-.941.176-1.312.531-.367.356-.551.817-.551 1.383 0 .566.184 1.031.551 1.387.371.351.808.531 1.312.531.535 0 .985-.18 1.34-.535.234-.235.367-.559.402-.973h-1.742v-.578h2.324c.028.125.036.246.036.363zM49.621 14.191h-2.183v1.52h1.968v.578h-1.968v1.52h2.183v.589H46.82v-4.796h2.801v.589zM52.223 18.398h-.618v-4.207h-1.339v-.589h3.297v.589h-1.34v4.207zM55.949 18.398v-4.796h.617v4.796h-.617zM59.301 18.398h-.613v-4.207h-1.344v-.589h3.301v.589h-1.344v4.207zM66.887 17.781c-.473.485-1.059.727-1.758.727-.703 0-1.289-.242-1.762-.727-.472-.484-.707-1.078-.707-1.781 0-.703.235-1.297.707-1.781.473-.485 1.059-.727 1.762-.727.695 0 1.281.242 1.754.731.476.488.711 1.078.711 1.777 0 .703-.235 1.297-.707 1.781zm-3.063-.402c.356.359.789.539 1.305.539.512 0 .949-.18 1.301-.539.355-.359.535-.82.535-1.379s-.18-1.02-.535-1.379c-.352-.359-.789-.539-1.301-.539-.516 0-.949.18-1.305.539-.355.359-.535.82-.535 1.379s.18 1.02.535 1.379zM68.461 18.398v-4.796h.75l2.332 3.73h.027l-.027-.922v-2.808h.617v4.796h-.644l-2.442-3.914h-.027l.027.926v2.988h-.613z" fill="#fff" stroke="#fff" stroke-width=".16" stroke-miterlimit="10" transform="matrix(1.3 0 0 1.2 -9.8 -9.6)"/>
  <path d="M68.52634977 21.8646114c-2.3543689 0-4.27770914 1.77092942-4.27770914 4.21431666 0 2.42357265 1.92334023 4.21307826 4.27770914 4.21307826 2.35938088 0 4.2827211-1.7895056 4.2827211-4.21307826 0-2.44338724-1.92334022-4.21431667-4.2827211-4.21431667zm0 6.7679226c-1.29183307 0-2.40323554-1.05388878-2.40323554-2.55360594 0-1.51953175 1.11140247-2.55484434 2.40323554-2.55484434 1.29183308 0 2.4082475 1.0353126 2.4082475 2.55484434 0 1.49971716-1.11641442 2.55360593-2.4082475 2.55360593zm-9.3335253-6.7679226c-2.35938088 0-4.27770914 1.77092942-4.27770914 4.21431666 0 2.42357265 1.91832826 4.21307826 4.27770914 4.21307826 2.3581279 0 4.27770914-1.7895056 4.27770914-4.21307826 0-2.44338724-1.91958124-4.21431667-4.27770913-4.21431667zm0 6.7679226c-1.29308607 0-2.4082475-1.05388878-2.4082475-2.55360594 0-1.51953175 1.11516143-2.55484434 2.4082475-2.55484434 1.29183308 0 2.40323554 1.0353126 2.40323554 2.55484434 0 1.49971716-1.11140245 2.55360593-2.40323553 2.55360593zM48.0863178 23.1562753v1.79074402h4.32657575c-.12655203 1.00063705-.46485943 1.7362539-.98359744 2.24895653-.63150714.6192061-1.6151046 1.30652486-3.3429783 1.30652486-2.66260456 0-4.74758055-2.1238769-4.74758055-4.7555028 0-2.6316259 2.084976-4.7555028 4.74758054-4.7555028 1.43968593 0 2.48718588.55604708 3.26028094 1.27680298l1.2767972-1.26194202c-1.0813307-1.02045164-2.51976365-1.80436656-4.53707815-1.80436656-3.65121397 0-6.7197874 2.9362753-6.7197874 6.5450084 0 3.60873313 3.06857343 6.54500842 6.7197874 6.54500842 1.97345983 0 3.45574744-.6390207 4.6210285-1.83780368 1.19409982-1.18020682 1.56623796-2.83967915 1.56623796-4.17964114 0-.4161065-.03508373-.79877586-.09773325-1.1182862h-6.0895332zm45.41588912 1.38826006c-.3520903-.94243167-1.43843295-2.67992397-3.65121395-2.67992397-2.19273316 0-4.01834014 1.7077704-4.01834014 4.21431666 0 2.36041363 1.80681212 4.21307826 4.22884252 4.21307826 1.95842395 0 3.08862127-1.1802068 3.5534807-1.86752558l-1.45346883-.95729262c-.48490728.7009413-1.1452332 1.16534587-2.10001187 1.16534587-.94851372 0-1.6288875-.42972904-2.06492814-1.27680297l5.7023592-2.33193015-.19671948-.47926552zm-5.81387534 1.403121c-.04886663-1.62479678 1.2767972-2.45700977 2.2265639-2.45700977.74427628 0 1.37578343.3678084 1.5862858.8941336l-3.8128497 1.56287617zm-4.6348114 4.08799864h1.8744736V17.65153313h-1.8744736V30.035655zm-3.06982642-7.23232717h-.06264952c-.42100476-.49288806-1.2241716-.93871644-2.24159978-.93871644-2.1350956 0-4.0872546 1.85266462-4.0872546 4.2279392 0 2.36165204 1.952159 4.19945572 4.0872546 4.19945572 1.0174282 0 1.82059502-.44954362 2.24159978-.95729262h.06264952v.60434515c0 1.61117426-.8708283 2.47682437-2.27543052 2.47682437-1.1452332 0-1.85567874-.81735204-2.1488785-1.5046708l-1.63014047.6724578c.4698714 1.1170478 1.71409083 2.49168534 3.77901897 2.49168534 2.19774512 0 4.05217087-1.27804138 4.05217087-4.38769438V22.1209627h-1.77674034v.68236513zM77.83982723 28.632534c-1.29183308 0-2.37316377-1.06874973-2.37316377-2.5399834 0-1.48485622 1.0813307-2.56846688 2.37316377-2.56846688 1.27303822 0 2.2766835 1.08361066 2.2766835 2.56846688 0 1.47123367-1.00364528 2.5399834-2.2766835 2.5399834zm24.43832427-10.98100087h-4.48319956V30.035655h1.86946164v-4.69234378h2.61373792c2.07620506 0 4.11231442-1.4848562 4.11231442-3.84650825 0-2.36041363-2.04112133-3.84526985-4.11231442-3.84526985zm.04886663 5.96914674h-2.66260455v-4.2465154h2.66260455c1.39583128 0 2.19273316 1.14553128 2.19273316 2.1226385 0 .95853103-.7969019 2.1238769-2.19273317 2.1238769zm11.55633023-1.7795983c-1.35072363 0-2.75532584.5894842-3.3329544 1.89600904l1.65895926.68731878c.35710225-.68731877 1.0136692-.91023296 1.70782588-.91023296.96981455 0 1.953412.57586167 1.96844788 1.59259807v.13003327c-.3383074-.1931923-1.06253584-.4792655-1.953412-.4792655-1.78676427 0-3.6073593.97215355-3.6073593 2.7864274 0 1.65947234 1.46349277 2.72822206 3.10866913 2.72822206 1.25800235 0 1.95215902-.56100072 2.38819967-1.21364395h.0639025v.95729262h1.80555914v-4.75054915c0-2.1957048-1.65895925-3.4242097-3.80783774-3.4242097zm-.22553827 6.78649877c-.6114593 0-1.46349277-.29969575-1.46349277-1.04893512 0-.95853103 1.06253584-1.32633945 1.98223078-1.32633945.82321468 0 1.20913572.17956976 1.70907888.4161065-.14659988 1.14676968-1.1452332 1.95916807-2.2278169 1.95916807zm10.61157548-6.51528652l-2.1488785 5.36851684h-.0639025l-2.22155194-5.36851684h-2.0160615l3.33796634 7.50230104-1.90454537 4.17468748h1.953412l5.1435255-11.67698852h-2.07996402zM107.41791802 30.035655h1.8744736V17.65153313h-1.8744736V30.035655z" fill="#fff"/>
  <path d="M16.348 33.969c-.235-.246-.371-.629-.371-1.125V15.152c0-.496.136-.879.371-1.125l.058-.054 9.914 9.91v.234l-9.914 9.91-.058-.058z" fill="url(#i)" transform="matrix(1.3 0 0 -1.2 -9.8 49.9)"/>
  <path d="M29.621 20.578l-3.301 3.305v.234l3.305 3.305.074-.043 3.914-2.227c1.117-.632 1.117-1.672 0-2.308l-3.914-2.223-.078-.043z" fill="url(#j)" transform="matrix(1.3 0 0 -1.2 -9.8 49.9)"/>
  <path d="M29.699 20.621L26.32 24l-9.972-9.973c.371-.39.976-.437 1.664-.047l11.687 6.641" fill="url(#k)" transform="matrix(1.3 0 0 -1.2 -9.8 49.9)"/>
  <path d="M29.699 27.379L18.012 34.02c-.688.386-1.293.339-1.664-.051L26.32 24l3.379 3.379z" fill="url(#l)" transform="matrix(1.3 0 0 -1.2 -9.8 49.9)"/>
  <g mask="url(#m)" transform="matrix(1.3 0 0 -1.2 -9.8 49.9)">
    <g clip-path="url(#n)">
      <path d="M0 0h124v48H0V0z" fill="url(#o)"/>
    </g>
  </g>
  <g mask="url(#p)" transform="matrix(1.3 0 0 -1.2 -9.8 49.9)">
    <g clip-path="url(#q)">
      <path d="M0 0h124v48H0V0z" fill="url(#r)"/>
    </g>
  </g>
  <g>
    <g mask="url(#s)" transform="matrix(1.3 0 0 -1.2 -9.8 49.9)">
      <g clip-path="url(#t)">
        <path d="M0 0h124v48H0V0z" fill="url(#u)"/>
      </g>
    </g>
  </g>
  <g>
    <g mask="url(#v)" transform="matrix(1.3 0 0 -1.2 -9.8 49.9)">
      <g clip-path="url(#w)">
        <path d="M0 0h124v48H0V0z" fill="url(#x)"/>
      </g>
    </g>
  </g>
</svg>
