<svg xmlns="http://www.w3.org/2000/svg" xmlns:xlink="http://www.w3.org/1999/xlink" width="158.403" height="108.345" viewBox="0 0 158.403 108.345"><defs><clipPath id="a"><rect width="158.403" height="108.345" fill="none"/></clipPath></defs><g clip-path="url(#a)"><path d="M118.781,171.983a3.978,3.978,0,0,1,.907-2.26,19.978,19.978,0,0,1,5.785-.8c4.784,0,6.691,2.26,6.691,4.743a4.714,4.714,0,0,1-3.533,4.647c2.752.986,3.6,2.515,3.6,4.52-.032,4.552-4.1,6.461-8.818,6.461a25.6,25.6,0,0,1-5.472-.732c.688-4.552,1.595-10.759,2.032-13.655.219-1.528.344-2.61.407-3.088-.594.032-1.282.191-1.595.223Zm9.1,11.077c0-2.005-1.626-3.024-3.6-3.024a6.168,6.168,0,0,0-1.032.063c-.281,1.974-.781,5.348-.844,6.335a8.49,8.49,0,0,0,1.688.159,3.47,3.47,0,0,0,3.784-3.5Zm.344-8.849a2.5,2.5,0,0,0-2.689-2.547,7.239,7.239,0,0,0-1.126.064c-.25,1.623-.626,4.456-.782,5.793a8.236,8.236,0,0,0,1.876-.128,3.1,3.1,0,0,0,2.721-3.151Z" transform="translate(-84.361 -119.971)" fill="#fff"/><path d="M184.054,188.367c3.627,0,5.378,2.292,5.378,5.634,0,5.061-3.19,9.167-8.318,9.167-3.721,0-5.41-1.91-5.41-5.634,0-5,3.033-9.167,8.318-9.167Zm-.594,2.705c-2.1,0-3.346,3.406-3.346,6.78,0,1.4.438,2.578,1.626,2.578,2,0,3.377-3.056,3.377-6.875,0-1.177-.407-2.483-1.626-2.483Z" transform="translate(-125.683 -133.777)" fill="#fff"/><path d="M230.618,198.457a10.933,10.933,0,0,1,3.033-7.576,8.839,8.839,0,0,1,6.754-2.515,22.962,22.962,0,0,1,4.784.732c-.312,1.369-1.063,6.621-1.438,9.74a22.148,22.148,0,0,0-.157,3.756,12.5,12.5,0,0,1-3.658.573c-.25,0-.282-1.21-.219-2.356.031-.509.094-1.019.125-1.4a7.534,7.534,0,0,1-6.191,3.756c-1.782,0-3.033-1.5-3.033-4.679Zm5.222,1.337c1.407,0,4.19-2.515,4.941-7.767.031-.255.062-.35.094-.7a3.718,3.718,0,0,0-1.282-.223,3.8,3.8,0,0,0-3.314,1.751,8.941,8.941,0,0,0-1.5,4.9c0,1.432.438,2.037,1.032,2.037Z" transform="translate(-164.963 -133.777)" fill="#fff"/><path d="M296.311,190.132a4.057,4.057,0,0,1-.875,3.119,5.676,5.676,0,0,1-3.877,1.337c-1.907,0-3.314-1.178-2.752-4.838.313-2.164.75-4.456,1.094-6.557h-2.064c0-1.019.594-2.738,1.345-2.738h1.125c.563-2.705,1.157-3.278,1.751-3.6a9.04,9.04,0,0,1,2.908-.573c-.156.923-.469,2.706-.75,4.169a29.692,29.692,0,0,0,3.533-.127,3.577,3.577,0,0,1-1.188,2.578,6.324,6.324,0,0,1-2.783.287c-.344,2.037-.907,5.507-1.063,6.589-.157,1.019.125,1.528.75,1.528a5.6,5.6,0,0,0,2.814-1.209Z" transform="translate(-205.892 -125.197)" fill="#fff"/><path d="M331.559,191.8a1.7,1.7,0,0,1-.344,1.814,4.572,4.572,0,0,1-3.439,1.91c-1.564,0-2.345-1.019-1.845-4.584.313-2.2.657-4.361,1.282-8.244H325.18c0-.286.219-1.019.719-1.019h1.47a15.631,15.631,0,0,1,.719-3.342,2.212,2.212,0,0,1,1.313-.732c-.25,1.464-.407,2.419-.657,4.074a32.9,32.9,0,0,0,4.19-.127,1.46,1.46,0,0,1-.688.923c-.281.191-.625.223-3.69.223-.563,3.5-1.157,7.48-1.282,8.594-.25,2.037-.125,2.96.938,2.96.969,0,2.22-.86,3.283-2.451Z" transform="translate(-232.604 -126.133)" fill="#fff"/><path d="M356.235,194.865c2.1-4.615,4-5.729,4.972-5.729a1.151,1.151,0,0,1,1.063.541,1.665,1.665,0,0,1-.5,1.082,2.95,2.95,0,0,0-.875-.223c-.938,0-4.221,2.547-5.691,11.4-.188,1.051-.281,1.305-.563,1.432a3.941,3.941,0,0,1-1.126.223c.5-2.483,1.188-7.162,1.595-10.409a12.527,12.527,0,0,0,.094-3.692,2.726,2.726,0,0,1,1.251-.35c.188,0,.438.828-.282,5.729Z" transform="translate(-252.872 -134.323)" fill="#fff"/><path d="M389.058,172.365c.156,0,.219.1.156.6-.844,6.557-1.376,10.313-1.657,12.7-.063.637-.125.669-.375.828a5.251,5.251,0,0,1-1.157.318c.282-1.814.719-5.156,1.094-8.021.438-3.438.688-5.157.719-6.08a3.448,3.448,0,0,1,1.188-.35Zm.344-6.843c.281,0,.75.159.75.891a.988.988,0,0,1-.969,1.051.758.758,0,0,1-.75-.86c0-.923.625-1.082.938-1.082Z" transform="translate(-276.127 -117.553)" fill="#fff"/><path d="M402.668,194.065c1.595-2.9,4.159-5.443,6.691-5.443,2.47,0,2.939,2.674,2.939,4.234,0,4.743-2.564,10.313-7.6,10.313a4,4,0,0,1-3.283-1.4c-.344,2.2-1.983,9.44-2.17,10.9-.094.732-.25,1.018-.469,1.177-.25.191-.438.255-1.157.286.813-4.806,2.827-14.278,3.453-19.212.438-3.437.688-5.411.688-5.952a2.667,2.667,0,0,1,1.532-.6c-.219,1.91-.438,3.533-.75,5.7Zm6.16-4.074c-2,0-6.129,3.183-7.067,9.74a5.393,5.393,0,0,1-.094.573,3.887,3.887,0,0,0,3.033,1.56c4.315,0,6-5,6-8.912,0-1.783-.688-2.96-1.845-2.96Z" transform="translate(-284.422 -133.777)" fill="#fff"/><path d="M117.225,71.786s19.744-10.071,46.506,27.795c-18.362-6.306-31.1-10.753-46.164-2.554,5.068-6.865,5.76-19.567-.341-25.241" transform="translate(-83.852 -50.12)" fill="#6cc5e6"/></g></svg>